<svg xmlns="http://www.w3.org/2000/svg" viewBox="0 0 240 48" fill="none">
<g stroke="#20252b" stroke-width="3" stroke-linecap="round" fill="none"><line x1="24" y1="8.5" x2="9.5" y2="38.5"></line><line x1="24" y1="8.5" x2="38.5" y2="38.5"></line><line x1="9.5" y1="38.5" x2="38.5" y2="38.5"></line><line x1="24" y1="26" x2="24" y2="8.5"></line><line x1="24" y1="26" x2="9.5" y2="38.5"></line><line x1="24" y1="26" x2="38.5" y2="38.5"></line></g>
<g fill="#20252b"><circle cx="24" cy="8.5" r="4"></circle><circle cx="9.5" cy="38.5" r="4"></circle><circle cx="38.5" cy="38.5" r="4"></circle></g>
<circle cx="24" cy="26" r="6" fill="#d04b16"></circle>
<line x1="56" y1="6" x2="56" y2="42" stroke="#20252b" stroke-width="1.5" opacity="0.35"></line>
<g transform="translate(72 38.79)">
<path fill="#20252b" d="M4.968 0L4.968 0L1.656 0Q1.012 0 1.196-0.782L1.196-0.782L9.200-28.796Q9.430-29.578 10.304-29.578L10.304-29.578L14.904-29.578Q15.824-29.578 16.008-28.796L16.008-28.796L24.012-0.782Q24.196 0 23.506 0L23.506 0L20.240 0Q19.826 0 19.665-0.161Q19.504-0.322 19.412-0.782L19.412-0.782L17.664-6.762L7.544-6.762L5.796-0.782Q5.612 0 4.968 0ZM12.696-25.162L12.512-25.162L8.464-10.442L16.790-10.442L12.696-25.162ZM36.340 0L36.340 0L32.384 0Q31.694 0 31.464-0.782L31.464-0.782L26.174-22.678Q25.990-23.460 26.726-23.460L26.726-23.460L30.038-23.460Q30.866-23.460 30.958-22.678L30.958-22.678L34.316-5.290L34.638-5.290L38.686-22.678Q38.824-23.460 39.560-23.460L39.560-23.460L42.596-23.460Q43.378-23.460 43.562-22.678L43.562-22.678L47.518-5.290L47.840-5.290L51.198-22.678Q51.336-23.460 52.118-23.460L52.118-23.460L55.430-23.460Q56.212-23.460 55.982-22.678L55.982-22.678L50.692-0.782Q50.554 0 49.772 0L49.772 0L45.816 0Q45.080 0 44.896-0.782L44.896-0.782L41.216-17.848L40.894-17.848L37.260-0.782Q37.122 0 36.340 0ZM68.356 0L68.356 0L66.562 0Q63.158 0 61.295-1.886Q59.432-3.772 59.432-7.130L59.432-7.130L59.432-16.330Q59.432-19.734 61.295-21.597Q63.158-23.460 66.562-23.460L66.562-23.460L76.866-23.460Q77.694-23.460 77.694-22.678L77.694-22.678L77.694-0.782Q77.694 0 76.866 0L76.866 0L73.968 0Q73.186 0 73.186-0.782L73.186-0.782L73.186-2.438L73.002-2.438Q71.898 0 68.356 0ZM73.186-7.820L73.186-7.820L73.186-19.090Q73.186-19.550 72.680-19.550L72.680-19.550L67.206-19.550Q63.894-19.550 63.894-16.146L63.894-16.146L63.894-7.314Q63.894-3.910 67.206-3.910L67.206-3.910L69.414-3.910Q73.186-3.910 73.186-7.820ZM87.124 0L87.124 0L84.226 0Q83.444 0 83.444-0.782L83.444-0.782L83.444-22.678Q83.444-23.460 84.226-23.460L84.226-23.460L87.124-23.460Q87.906-23.460 87.906-22.678L87.906-22.678L87.906-20.930L88.090-20.930Q88.550-22.080 89.861-22.770Q91.172-23.460 92.782-23.460L92.782-23.460L94.484-23.460Q95.266-23.460 95.266-22.678L95.266-22.678L95.266-20.286Q95.266-19.412 94.484-19.550L94.484-19.550L91.724-19.550Q87.906-19.550 87.906-15.364L87.906-15.364L87.906-0.782Q87.906 0 87.124 0ZM115.460 0L115.460 0L105.524 0Q102.120 0 100.257-1.886Q98.394-3.772 98.394-7.130L98.394-7.130L98.394-16.330Q98.394-19.734 100.257-21.597Q102.120-23.460 105.524-23.460L105.524-23.460L109.296-23.460Q112.700-23.460 114.586-21.597Q116.472-19.734 116.472-16.330L116.472-16.330L116.472-10.488Q116.472-9.660 115.644-9.660L115.644-9.660L103.316-9.660Q102.810-9.660 102.810-9.200L102.810-9.200L102.810-7.222Q102.810-3.864 106.168-3.864L106.168-3.864L115.460-3.864Q116.288-3.864 116.288-3.036L116.288-3.036L116.288-0.736Q116.288 0 115.460 0ZM103.316-12.788L103.316-12.788L111.550-12.788Q112.010-12.788 112.010-13.248L112.010-13.248L112.010-16.192Q112.010-17.940 111.228-18.745Q110.446-19.550 108.698-19.550L108.698-19.550L106.168-19.550Q104.420-19.550 103.638-18.745Q102.856-17.940 102.856-16.192L102.856-16.192L102.856-13.248Q102.856-12.788 103.316-12.788Z"></path>
<path fill="#d04b16" d="M126.960-3.910L126.960-3.910L133.446-3.910Q136.758-3.910 136.758-7.314L136.758-7.314L136.758-22.264Q136.758-25.668 133.446-25.668L133.446-25.668L126.960-25.668Q126.454-25.668 126.454-25.208L126.454-25.208L126.454-4.416Q126.454-3.910 126.960-3.910ZM121.992-0.782L121.992-0.782L121.992-28.796Q121.992-29.578 122.774-29.578L122.774-29.578L134.090-29.578Q137.448-29.578 139.357-27.715Q141.266-25.852 141.266-22.448L141.266-22.448L141.266-7.130Q141.266-3.772 139.357-1.886Q137.448 0 134.090 0L134.090 0L122.774 0Q121.992 0 121.992-0.782ZM152.490-3.818L152.490-3.818L158.930-3.818Q162.380-3.818 162.380-7.130L162.380-7.130L162.380-9.982Q162.380-13.294 158.746-13.294L158.746-13.294L152.490-13.294Q151.984-13.294 151.984-12.834L151.984-12.834L151.984-4.278Q151.984-3.818 152.490-3.818ZM152.490-16.974L152.490-16.974L158.470-16.974Q161.966-16.974 161.966-20.332L161.966-20.332L161.966-22.448Q161.966-25.760 158.562-25.760L158.562-25.760L152.490-25.760Q151.984-25.760 151.984-25.300L151.984-25.300L151.984-17.434Q151.984-16.974 152.490-16.974ZM147.522-0.782L147.522-0.782L147.522-28.796Q147.522-29.578 148.304-29.578L148.304-29.578L159.206-29.578Q162.610-29.578 164.496-27.738Q166.382-25.898 166.382-22.540L166.382-22.540L166.382-20.286Q166.382-16.284 162.610-15.134L162.610-15.134Q164.404-14.904 165.577-13.570Q166.750-12.236 166.750-9.982L166.750-9.982L166.750-7.038Q166.750-3.680 164.864-1.840Q162.978 0 159.620 0L159.620 0L148.304 0Q147.522 0 147.522-0.782Z"></path>
</g>
</svg>